<?xml version="1.0" encoding="utf-8" standalone="no"?>
<!DOCTYPE svg PUBLIC "-//W3C//DTD SVG 1.1//EN"
  "http://www.w3.org/Graphics/SVG/1.1/DTD/svg11.dtd">
<svg xmlns:xlink="http://www.w3.org/1999/xlink" width="288pt" height="288pt" viewBox="0 0 288 288" xmlns="http://www.w3.org/2000/svg" version="1.1">
 <metadata>
  <rdf:RDF xmlns:dc="http://purl.org/dc/elements/1.1/" xmlns:cc="http://creativecommons.org/ns#" xmlns:rdf="http://www.w3.org/1999/02/22-rdf-syntax-ns#">
   <cc:Work>
    <dc:type rdf:resource="http://purl.org/dc/dcmitype/StillImage"/>
    <dc:date>2023-05-31T01:29:45.166047</dc:date>
    <dc:format>image/svg+xml</dc:format>
    <dc:creator>
     <cc:Agent>
      <dc:title>Matplotlib v3.6.3, https://matplotlib.org/</dc:title>
     </cc:Agent>
    </dc:creator>
   </cc:Work>
  </rdf:RDF>
 </metadata>
 <defs>
  <style type="text/css">*{stroke-linejoin: round; stroke-linecap: butt}</style>
 </defs>
 <g id="figure_1">
  <g id="patch_1">
   <path d="M 0 288 
L 288 288 
L 288 0 
L 0 0 
L 0 288 
z
" style="fill: none"/>
  </g>
  <g id="axes_1">
   <g id="patch_2">
    <path d="M 75.581327 103.86 
C 82.879599 116.500976 93.379024 127.000401 106.02 134.298673 
C 118.660976 141.596944 133.003458 145.44 147.6 145.44 
C 162.196542 145.44 176.539024 141.596944 189.18 134.298673 
C 201.820976 127.000401 212.320401 116.500976 219.618673 103.86 
L 147.6 62.28 
L 75.581327 103.86 
L 75.581327 103.86 
z
" clip-path="url(#pb1d2a2493c)" style="fill: none; stroke: #fee4d0; stroke-width: 0.6; stroke-linejoin: miter"/>
   </g>
   <g id="patch_3">
    <path d="M 219.618673 187.02 
C 212.320401 174.379024 201.820976 163.879599 189.18 156.581327 
C 176.539024 149.283056 162.196542 145.44 147.6 145.44 
C 133.003458 145.44 118.660976 149.283056 106.02 156.581327 
C 93.379024 163.879599 82.879599 174.379024 75.581327 187.02 
L 147.6 228.6 
L 219.618673 187.02 
L 219.618673 187.02 
z
" clip-path="url(#pb1d2a2493c)" style="fill: none; stroke: #fee4d0; stroke-width: 0.6; stroke-linejoin: miter"/>
   </g>
   <g id="patch_4">
    <path d="M 147.6 62.28 
C 140.301729 74.920976 136.458673 89.263458 136.458673 103.86 
C 136.458673 118.456542 140.301729 132.799024 147.6 145.44 
C 154.898271 158.080976 165.397696 168.580401 178.038673 175.878673 
C 190.679649 183.176944 205.02213 187.02 219.618673 187.02 
L 219.618673 103.86 
L 147.6 62.28 
L 147.6 62.28 
z
" clip-path="url(#pb1d2a2493c)" style="fill: none; stroke: #fee4d0; stroke-width: 0.6; stroke-linejoin: miter"/>
   </g>
   <g id="patch_5">
    <path d="M 75.581327 187.02 
C 90.17787 187.02 104.520351 183.176944 117.161327 175.878673 
C 129.802304 168.580401 140.301729 158.080976 147.6 145.44 
C 154.898271 132.799024 158.741327 118.456542 158.741327 103.86 
C 158.741327 89.263458 154.898271 74.920976 147.6 62.28 
L 75.581327 103.86 
L 75.581327 187.02 
L 75.581327 187.02 
z
" clip-path="url(#pb1d2a2493c)" style="fill: none; stroke: #fee4d0; stroke-width: 0.6; stroke-linejoin: miter"/>
   </g>
   <g id="patch_6">
    <path d="M 219.618673 103.86 
C 205.02213 103.86 190.679649 107.703056 178.038673 115.001327 
C 165.397696 122.299599 154.898271 132.799024 147.6 145.44 
C 140.301729 158.080976 136.458673 172.423458 136.458673 187.02 
C 136.458673 201.616542 140.301729 215.959024 147.6 228.6 
L 219.618673 187.02 
L 219.618673 103.86 
L 219.618673 103.86 
z
" clip-path="url(#pb1d2a2493c)" style="fill: none; stroke: #fee4d0; stroke-width: 0.6; stroke-linejoin: miter"/>
   </g>
   <g id="patch_7">
    <path d="M 147.6 228.6 
C 154.898271 215.959024 158.741327 201.616542 158.741327 187.02 
C 158.741327 172.423458 154.898271 158.080976 147.6 145.44 
C 140.301729 132.799024 129.802304 122.299599 117.161327 115.001327 
C 104.520351 107.703056 90.17787 103.86 75.581327 103.86 
L 75.581327 187.02 
L 147.6 228.6 
L 147.6 228.6 
z
" clip-path="url(#pb1d2a2493c)" style="fill: none; stroke: #fee4d0; stroke-width: 0.6; stroke-linejoin: miter"/>
   </g>
   <g id="matplotlib.axis_1"/>
   <g id="matplotlib.axis_2"/>
   <g id="line2d_1">
    <path d="M 147.6 228.6 
L 147.6 62.28 
" clip-path="url(#pb1d2a2493c)" style="fill: none; stroke: #fee4d0; stroke-width: 0.6; stroke-linecap: square"/>
   </g>
   <g id="line2d_2">
    <path d="M 75.581327 187.02 
L 219.618673 103.86 
" clip-path="url(#pb1d2a2493c)" style="fill: none; stroke: #fee4d0; stroke-width: 0.6; stroke-linecap: square"/>
   </g>
   <g id="line2d_3">
    <path d="M 219.618673 187.02 
L 75.581327 103.86 
" clip-path="url(#pb1d2a2493c)" style="fill: none; stroke: #fee4d0; stroke-width: 0.6; stroke-linecap: square"/>
   </g>
  </g>
 </g>
 <defs>
  <clipPath id="pb1d2a2493c">
   <rect x="36.72" y="34.56" width="221.76" height="221.76"/>
  </clipPath>
 </defs>
</svg>
