<?xml version="1.0" encoding="utf-8" standalone="no"?>
<!DOCTYPE svg PUBLIC "-//W3C//DTD SVG 1.1//EN"
  "http://www.w3.org/Graphics/SVG/1.1/DTD/svg11.dtd">
<svg xmlns:xlink="http://www.w3.org/1999/xlink" width="288pt" height="288pt" viewBox="0 0 288 288" xmlns="http://www.w3.org/2000/svg" version="1.1">
 <metadata>
  <rdf:RDF xmlns:dc="http://purl.org/dc/elements/1.1/" xmlns:cc="http://creativecommons.org/ns#" xmlns:rdf="http://www.w3.org/1999/02/22-rdf-syntax-ns#">
   <cc:Work>
    <dc:type rdf:resource="http://purl.org/dc/dcmitype/StillImage"/>
    <dc:date>2023-05-31T02:12:51.649584</dc:date>
    <dc:format>image/svg+xml</dc:format>
    <dc:creator>
     <cc:Agent>
      <dc:title>Matplotlib v3.6.3, https://matplotlib.org/</dc:title>
     </cc:Agent>
    </dc:creator>
   </cc:Work>
  </rdf:RDF>
 </metadata>
 <defs>
  <style type="text/css">*{stroke-linejoin: round; stroke-linecap: butt}</style>
 </defs>
 <g id="figure_1">
  <g id="patch_1">
   <path d="M 0 288 
L 288 288 
L 288 0 
L 0 0 
L 0 288 
z
" style="fill: none"/>
  </g>
  <g id="axes_1">
   <g id="patch_2">
    <path d="M 25.230802 75.428571 
C 37.266705 96.275368 54.581775 113.590437 75.428571 125.626341 
C 96.275368 137.662245 119.928193 144 144 144 
C 168.071807 144 191.724632 137.662245 212.571429 125.626341 
C 233.418225 113.590437 250.733295 96.275368 262.769198 75.428571 
L 144 6.857143 
L 25.230802 75.428571 
L 25.230802 75.428571 
z
" clip-path="url(#pa5aceae92f)" style="fill: none; stroke: #fee4d0; stroke-width: 0.6; stroke-linejoin: miter"/>
   </g>
   <g id="patch_3">
    <path d="M 262.769198 212.571429 
C 250.733295 191.724632 233.418225 174.409563 212.571429 162.373659 
C 191.724632 150.337755 168.071807 144 144 144 
C 119.928193 144 96.275368 150.337755 75.428571 162.373659 
C 54.581775 174.409563 37.266705 191.724632 25.230802 212.571429 
L 144 281.142857 
L 262.769198 212.571429 
L 262.769198 212.571429 
z
" clip-path="url(#pa5aceae92f)" style="fill: none; stroke: #fee4d0; stroke-width: 0.6; stroke-linejoin: miter"/>
   </g>
   <g id="patch_4">
    <path d="M 144 6.857143 
C 131.964096 27.70394 125.626341 51.356764 125.626341 75.428571 
C 125.626341 99.500379 131.964096 123.153203 144 144 
C 156.035904 164.846797 173.350973 182.161866 194.19777 194.19777 
C 215.044566 206.233673 238.697391 212.571429 262.769198 212.571429 
L 262.769198 75.428571 
L 144 6.857143 
L 144 6.857143 
z
" clip-path="url(#pa5aceae92f)" style="fill: none; stroke: #fee4d0; stroke-width: 0.6; stroke-linejoin: miter"/>
   </g>
   <g id="patch_5">
    <path d="M 25.230802 212.571429 
C 49.302609 212.571429 72.955434 206.233673 93.80223 194.19777 
C 114.649027 182.161866 131.964096 164.846797 144 144 
C 156.035904 123.153203 162.373659 99.500379 162.373659 75.428571 
C 162.373659 51.356764 156.035904 27.70394 144 6.857143 
L 25.230802 75.428571 
L 25.230802 212.571429 
L 25.230802 212.571429 
z
" clip-path="url(#pa5aceae92f)" style="fill: none; stroke: #fee4d0; stroke-width: 0.6; stroke-linejoin: miter"/>
   </g>
   <g id="patch_6">
    <path d="M 262.769198 75.428571 
C 238.697391 75.428571 215.044566 81.766327 194.19777 93.80223 
C 173.350973 105.838134 156.035904 123.153203 144 144 
C 131.964096 164.846797 125.626341 188.499621 125.626341 212.571429 
C 125.626341 236.643236 131.964096 260.29606 144 281.142857 
L 262.769198 212.571429 
L 262.769198 75.428571 
L 262.769198 75.428571 
z
" clip-path="url(#pa5aceae92f)" style="fill: none; stroke: #fee4d0; stroke-width: 0.6; stroke-linejoin: miter"/>
   </g>
   <g id="patch_7">
    <path d="M 144 281.142857 
C 156.035904 260.29606 162.373659 236.643236 162.373659 212.571429 
C 162.373659 188.499621 156.035904 164.846797 144 144 
C 131.964096 123.153203 114.649027 105.838134 93.80223 93.80223 
C 72.955434 81.766327 49.302609 75.428571 25.230802 75.428571 
L 25.230802 212.571429 
L 144 281.142857 
L 144 281.142857 
z
" clip-path="url(#pa5aceae92f)" style="fill: none; stroke: #fee4d0; stroke-width: 0.6; stroke-linejoin: miter"/>
   </g>
   <g id="line2d_1">
    <path d="M 144 281.142857 
L 144 6.857143 
" clip-path="url(#pa5aceae92f)" style="fill: none; stroke: #fee4d0; stroke-width: 0.6; stroke-linecap: square"/>
   </g>
   <g id="line2d_2">
    <path d="M 25.230802 212.571429 
L 262.769198 75.428571 
" clip-path="url(#pa5aceae92f)" style="fill: none; stroke: #fee4d0; stroke-width: 0.6; stroke-linecap: square"/>
   </g>
   <g id="line2d_3">
    <path d="M 262.769198 212.571429 
L 25.230802 75.428571 
" clip-path="url(#pa5aceae92f)" style="fill: none; stroke: #fee4d0; stroke-width: 0.6; stroke-linecap: square"/>
   </g>
  </g>
 </g>
 <defs>
  <clipPath id="pa5aceae92f">
   <rect x="0" y="0" width="288" height="288"/>
  </clipPath>
 </defs>
</svg>
